<?xml version="1.0" encoding="UTF-8" standalone="no"?>
<!DOCTYPE svg PUBLIC "-//W3C//DTD SVG 1.1//EN" "http://www.w3.org/Graphics/SVG/1.1/DTD/svg11.dtd">
<svg xmlns="http://www.w3.org/2000/svg" xmlns:xlink="http://www.w3.org/1999/xlink" version="1.1" width="1080" height="1920" viewBox="0 0 1080 1920" xml:space="preserve">
<desc>Created with Fabric.js 3.6.3</desc>
<defs>
</defs>
<g transform="matrix(2.095547218993276 -5.1326e-16 5.1326e-16 2.095547218993276 541.015076615828 960)">
<path style="stroke: none; stroke-width: 0; stroke-dasharray: none; stroke-linecap: butt; stroke-dashoffset: 0; stroke-linejoin: miter; stroke-miterlimit: 4; fill: rgb(76,76,76); fill-rule: nonzero; opacity: 1;" transform=" translate(-32.015, -32.001763714591306)" d="M 60.62 7.74 H 56.54 V 4.33 a 1 1 0 0 0 -1 -1 H 51.48 V 1 a 1 1 0 0 0 -1 -1 H 45.45 a 1 1 0 0 0 -1 1 V 14.05 H 42.25 a 7.84 7.84 0 0 0 -1 -0.91 c -2.86 -2 -10.11 -4.38 -12.9 -1.91 a 19.89 19.89 0 0 0 -2.61 2.82 H 19.52 V 1 a 1 1 0 0 0 -1 -1 H 13.49 a 1 1 0 0 0 -1 1 V 3.36 H 8.43 a 1 1 0 0 0 -1 1 V 7.74 H 3.38 a 1 1 0 0 0 -1 1 v 17 a 1 1 0 0 0 1 1 H 7.46 v 3.4 a 1 1 0 0 0 1 1 h 4.09 v 2.39 a 1 1 0 0 0 1 1 h 5.06 a 1 1 0 0 0 1 -1 V 20.37 H 23.8 A 5 5 0 0 0 25.69 23 c 1.75 1.34 3.37 1.85 4.79 1.52 a 3.63 3.63 0 0 0 2 -1.27 h 4.6 L 39 25.34 c 0.82 5 1.66 11.91 2.08 15.55 c -2.53 -1.51 -6.09 -1.63 -10.48 -0.31 a 14.41 14.41 0 0 0 -9.28 -3.32 c -7.72 0 -14 5.87 -14 13.09 s 6.28 13.09 14 13.09 a 14.81 14.81 0 0 0 6.16 -1.34 A 38.64 38.64 0 0 0 38.05 64 a 11.23 11.23 0 0 0 4 -0.63 C 48.17 61 59.8 48.82 59.8 45.65 c 0 -4.11 -2.79 -10 -5.44 -14.6 h 1.21 a 1 1 0 0 0 1 -1 v -3.4 h 4.08 a 1 1 0 0 0 1 -1 v -17 A 1 1 0 0 0 60.62 7.74 Z m -14.2 -5.8 h 3.12 V 32.47 H 46.42 V 1.94 Z M 44.48 18.43 h -14 a 2.51 2.51 0 0 1 0 -2.44 h 14 Z M 4.35 24.74 V 9.68 H 7.46 V 24.74 Z M 9.4 29.11 V 5.3 h 3.12 V 29.11 Z m 8.18 3.36 H 14.46 V 1.94 h 3.12 V 32.47 Z M 19.52 16 h 5 a 7.52 7.52 0 0 0 -0.8 2.44 H 19.52 Z M 30 22.68 a 4.23 4.23 0 0 1 -3.15 -1.18 a 2.91 2.91 0 0 1 -1.29 -2.25 c -0.07 -2.14 2.13 -4.87 4 -6.57 c 1.44 -1.26 6.32 -0.29 9.4 1.37 H 30 a 1 1 0 0 0 -0.73 0.33 A 4.51 4.51 0 0 0 29.15 20 a 1 1 0 0 0 0.17 0.18 l 1.48 2.15 A 1.74 1.74 0 0 1 30 22.68 Z m 27.84 23 c -0.16 1.81 -10.28 13.54 -16.49 15.92 c -2.55 1 -7.41 0.48 -13.66 -1.43 a 1 1 0 0 0 -0.71 0.06 a 12.63 12.63 0 0 1 -5.65 1.31 c -6.65 0 -12.06 -5 -12.06 -11.15 S 14.7 39.2 21.35 39.2 a 12.48 12.48 0 0 1 8.4 3.18 a 1 1 0 0 0 0.95 0.21 c 3.59 -1.16 8.39 -1.87 10.9 1.27 a 1 1 0 0 0 1.72 -0.71 c 0 -0.11 -1.25 -11.38 -2.42 -18.43 a 1 1 0 0 0 -0.25 -0.5 l -2.42 -2.56 a 1 1 0 0 0 -0.71 -0.31 h -5 l -0.68 -1 H 44.48 V 33.44 a 1 1 0 0 0 1 1 h 5.06 a 1 1 0 0 0 1 -1 V 31.05 h 0.63 C 55.87 37.43 57.86 42.48 57.86 45.64 Z M 54.6 29.11 H 51.48 V 5.3 H 54.6 V 29.11 Z m 5 -4.37 H 56.54 V 9.68 h 3.11 Z" stroke-linecap="round"/>
</g>
<g transform="matrix(2.16 0 0 2.16 234.38675906734613 962.1276)" style=""><path fill="#000000" opacity="1" d="M-29.87-8.52C-35.44-8.52-38.48-5.48-38.48-0.75C-38.48 3.97-35.44 7.02-29.87 7.02C-24.83 7.02-22.10 4.29-22.10 1.77C-22.10 1.24-22.42 0.93-22.94 0.93L-25.57 0.93C-26.20 0.93-26.53 1.24-26.83 1.77C-27.35 2.71-28.19 3.55-29.87 3.55C-32.18 3.55-33.65 2.08-33.65-0.75C-33.65-3.59-32.18-5.06-29.87-5.06C-28.30-5.06-27.56-4.32-27.04-3.48C-26.72-2.96-26.41-2.64-25.78-2.64L-23.15-2.64C-22.63-2.64-22.31-2.96-22.31-3.48C-22.31-5.90-24.94-8.52-29.87-8.52Z"/><path fill="#000000" opacity="1" d="M-11.81 3.55C-14.12 3.55-15.59 2.08-15.59-0.75C-15.59-3.59-14.12-5.06-11.81-5.06C-9.50-5.06-8.03-3.59-8.03-0.75C-8.03 2.08-9.50 3.55-11.81 3.55ZM-11.81-8.52C-17.38-8.52-20.42-5.48-20.42-0.75C-20.42 3.97-17.38 7.02-11.81 7.02C-6.25 7.02-3.20 3.97-3.20-0.75C-3.20-5.48-6.25-8.52-11.81-8.52Z"/><path fill="#000000" opacity="1" d="M0.05 6.60L6.67 6.60C12.34 6.60 15.28 3.66 15.28-0.75C15.28-5.16 12.34-8.10 6.67-8.10L0.05-8.10C-0.37-8.10-0.68-7.79-0.68-7.37L-0.68 5.86C-0.68 6.28-0.37 6.60 0.05 6.60ZM3.94 3.24L3.94-4.74L6.67-4.74C9.08-4.74 10.45-3.38 10.45-0.75C10.45 1.87 9.08 3.24 6.67 3.24Z"/><path fill="#000000" opacity="1" d="M25.78 3.55C23.47 3.55 22.00 2.08 22.00-0.75C22.00-3.59 23.47-5.06 25.78-5.06C28.09-5.06 29.56-3.59 29.56-0.75C29.56 2.08 28.09 3.55 25.78 3.55ZM25.78-8.52C20.21-8.52 17.17-5.48 17.17-0.75C17.17 3.97 20.21 7.02 25.78 7.02C31.34 7.02 34.39 3.97 34.39-0.75C34.39-5.48 31.34-8.52 25.78-8.52Z"/><path fill="#000000" opacity="1" d=""/><path fill="#000000" opacity="1" d="M59.27-1.07C59.27-1.49 58.96-1.80 58.54-1.80L52.30-1.80C51.88-1.80 51.57-1.49 51.57-1.07L51.57 0.82C51.57 1.24 51.88 1.56 52.30 1.56L54.65 1.56C54.23 2.61 53.39 3.55 51.40 3.55C49.09 3.55 47.62 2.08 47.62-0.75C47.62-3.59 49.09-5.06 51.40-5.06C53.06-5.06 53.71-4.43 54.23-3.69C54.55-3.27 54.97-2.85 55.49-2.85L58.12-2.85C58.62-2.85 58.96-3.17 58.96-3.69C58.96-5.90 56.33-8.52 51.40-8.52C45.83-8.52 42.79-5.48 42.79-0.75C42.79 3.97 45.83 7.02 51.40 7.02C56.33 7.02 59.27 4.08 59.27 0.72Z"/><path fill="#000000" opacity="1" d="M76.47-7.37C76.68-7.68 76.47-8.10 75.95-8.10L72.69-8.10C72.06-8.10 71.62-7.68 71.43-7.37L68.28-2.22L68.07-2.22L64.92-7.37C64.73-7.68 64.29-8.10 63.66-8.10L60.41-8.10C59.88-8.10 59.67-7.68 59.88-7.37L65.87 1.98L65.87 5.86C65.87 6.28 66.18 6.60 66.60 6.60L69.75 6.60C70.17 6.60 70.49 6.28 70.49 5.86L70.49 1.98Z"/><path fill="#000000" opacity="1" d="M89.49 6.60C90.12 6.60 90.52 6.18 90.65 5.86L93.46-1.07L93.67-1.07L93.67 5.86C93.67 6.28 93.99 6.60 94.41 6.60L97.56 6.60C97.98 6.60 98.29 6.28 98.29 5.86L98.29-7.37C98.29-7.79 97.98-8.10 97.56-8.10L93.15-8.10C92.52-8.10 92.12-7.68 91.99-7.37L88.32 1.56L88.11 1.56L84.43-7.37C84.31-7.68 83.91-8.10 83.28-8.10L78.87-8.10C78.45-8.10 78.13-7.79 78.13-7.37L78.13 5.86C78.13 6.28 78.45 6.60 78.87 6.60L82.02 6.60C82.44 6.60 82.75 6.28 82.75 5.86L82.75-1.07L82.96-1.07L85.80 5.86C85.92 6.18 86.32 6.60 86.95 6.60Z"/></g><g transform="matrix(2.16 0 0 2.16 846.2264408479825 964.88808)" style=""><path fill="#000000" opacity="1" d="M-96.57-1.55C-97.87-1.49-98.33-2.54-98.33-3.39C-98.33-4.40-97.62-5.22-96.54-5.22C-95.84-5.22-95.44-4.85-94.96-4.27C-94.61-3.85-93.87-4.24-94.18-4.80C-94.65-5.62-95.50-6.08-96.54-6.08C-98.10-6.08-99.18-4.87-99.18-3.39C-99.18-1.74-97.97-0.62-96.57-0.68C-95.27-0.75-94.34 0.27-94.34 1.49C-94.34 2.84-95.19 3.79-96.54 3.79C-97.43 3.79-97.97 3.28-98.41 2.64C-98.88 1.99-99.69 2.53-99.29 3.18C-98.74 4.09-97.74 4.65-96.54 4.65C-94.72 4.65-93.47 3.31-93.47 1.49C-93.47-0.64-95.33-1.59-96.57-1.55Z"/><path fill="#000000" opacity="1" d="M-86.09-1.29L-86.09-0.21L-90.47-0.21L-90.47 3.37L-85.39 3.37L-85.39 4.46L-91.80 4.46L-91.80-5.63L-85.46-5.63L-85.46-4.54L-90.47-4.54L-90.47-1.29L-86.09-1.29ZM-89.39-6.38L-88.05-8.42L-86.50-8.42L-88.36-6.38L-89.39-6.38Z"/><path fill="#000000" opacity="1" d=""/><path fill="#000000" opacity="1" d="M-72.47-5.91L-78.04-5.91C-78.28-5.91-78.48-5.71-78.48-5.47L-78.48-5.44C-78.48-5.20-78.28-5.00-78.04-5.00L-75.86-5.00C-75.74-5.00-75.71-4.95-75.71-4.81L-75.71 4.02C-75.71 4.26-75.51 4.46-75.27 4.46L-75.24 4.46C-75.00 4.46-74.80 4.26-74.80 4.02L-74.80-4.84C-74.80-4.95-74.76-5.00-74.61-5.00L-72.47-5.00C-72.23-5.00-72.03-5.20-72.03-5.44L-72.03-5.47C-72.03-5.71-72.23-5.91-72.47-5.91Z"/><path fill="#000000" opacity="1" d="M-63.72-5.91L-63.77-5.91C-64.01-5.91-64.21-5.71-64.21-5.47L-64.21-0.32C-64.21 2.15-64.89 3.79-67.16 3.79C-69.45 3.79-70.27 2.15-70.27-0.32L-70.27-5.47C-70.27-5.71-70.45-5.91-70.70-5.91L-70.74-5.91C-70.98-5.91-71.18-5.71-71.18-5.47L-71.18-0.32C-71.18 2.64-70.13 4.65-67.16 4.65C-64.21 4.65-63.28 2.64-63.28-0.32L-63.28-5.47C-63.28-5.71-63.48-5.91-63.72-5.91Z"/><path fill="#000000" opacity="1" d=""/><path fill="#000000" opacity="1" d="M-47.99-5.91C-48.19-5.91-48.29-5.82-48.34-5.78C-48.34-5.78-51.30-2.21-51.53-1.94C-51.85-1.56-51.84-1.50-52.15-1.87C-52.35-2.11-55.39-5.78-55.39-5.78C-55.44-5.82-55.53-5.91-55.74-5.91C-55.98-5.91-56.18-5.71-56.18-5.47L-56.18 4.02C-56.18 4.26-55.98 4.46-55.74 4.46L-55.70 4.46C-55.46 4.46-55.26 4.26-55.26 4.02C-55.26 4.02-55.26-3.53-55.26-3.86C-55.26-4.17-55.16-4.22-54.99-4.00C-54.24-3.08-52.24-0.62-52.19-0.57C-52.12-0.50-51.99-0.44-51.87-0.44C-51.74-0.44-51.67-0.47-51.54-0.57C-51.44-0.65-49.45-3.14-48.73-4.03C-48.57-4.23-48.47-4.23-48.47-3.86C-48.47-3.48-48.47 4.02-48.47 4.02C-48.47 4.26-48.27 4.46-48.03 4.46L-47.99 4.46C-47.75 4.46-47.55 4.26-47.55 4.02L-47.55-5.47C-47.55-5.71-47.75-5.91-47.99-5.91Z"/><path fill="#000000" opacity="1" d="M-40.59 3.54L-45.06 3.54C-45.19 3.54-45.22 3.50-45.22 3.37L-45.22-0.24C-45.22-0.37-45.18-0.40-45.04-0.40L-41.40-0.40C-41.16-0.40-40.96-0.59-40.96-0.84L-40.96-0.86C-40.96-1.11-41.16-1.30-41.40-1.30L-45.06-1.30C-45.19-1.30-45.22-1.35-45.22-1.49L-45.22-4.84C-45.22-4.95-45.18-5.00-45.04-5.00L-40.86-5.00C-40.62-5.00-40.42-5.20-40.42-5.44L-40.42-5.47C-40.42-5.71-40.62-5.91-40.86-5.91L-45.70-5.91C-45.94-5.91-46.13-5.71-46.13-5.47L-46.13 4.02C-46.13 4.26-45.94 4.46-45.70 4.46L-40.59 4.46C-40.35 4.46-40.15 4.26-40.15 4.02L-40.15 3.98C-40.15 3.74-40.35 3.54-40.59 3.54Z"/><path fill="#000000" opacity="1" d="M-34.03-5.91L-38.22-5.91C-38.48-5.91-38.66-5.71-38.66-5.47L-38.66-5.44C-38.66-5.20-38.48-5.00-38.22-5.00L-34.67-5.00C-34.54-5.00-34.51-4.95-34.51-4.81L-34.51 1.05C-34.51 2.53-35.04 3.79-36.50 3.79C-37.91 3.79-38.33 2.93-38.33 1.59C-38.33 0.78-39.27 0.77-39.27 1.59C-39.27 3.40-38.40 4.65-36.50 4.65C-34.53 4.65-33.59 3.03-33.59 1.05L-33.59-5.47C-33.59-5.71-33.79-5.91-34.03-5.91Z"/><path fill="#000000" opacity="1" d="M-27.02-6.08C-29.98-6.08-32.38-3.69-32.38-0.72C-32.38 2.23-29.98 4.65-27.02 4.65C-24.05 4.65-21.79 2.23-21.79-0.72C-21.79-3.69-24.05-6.08-27.02-6.08ZM-27.02 3.79C-29.47 3.79-31.48 1.73-31.48-0.72C-31.48-3.19-29.47-5.24-27.02-5.24C-24.56-5.24-22.70-3.19-22.70-0.72C-22.70 1.73-24.56 3.79-27.02 3.79Z"/><path fill="#000000" opacity="1" d="M-14.19 3.62C-14.55 3.62-14.05 2.32-14.05 1.55C-14.05 0.56-14.49-0.08-15.26-0.52C-15.46-0.64-15.44-0.71-15.29-0.82C-14.58-1.32-14.09-2.03-14.09-2.99C-14.09-4.85-15.77-5.91-17.69-5.91L-20.14-5.91C-20.38-5.91-20.58-5.71-20.58-5.34C-20.58-5.34-20.58 4.03-20.58 4.15C-20.58 4.26-20.38 4.46-20.14 4.46L-20.10 4.46C-19.86 4.46-19.66 4.29-19.66 4.15C-19.66 4.02-19.66 0.09-19.66 0.09C-19.66-0.04-19.62-0.07-19.49-0.07L-17.28-0.07C-15.63-0.07-14.99 0.40-14.99 1.55C-14.99 2.53-15.32 3.65-14.92 4.18C-14.76 4.39-14.45 4.55-14.19 4.55C-13.33 4.55-13.41 3.62-14.19 3.62ZM-17.69-0.99L-19.50-0.99C-19.63-0.99-19.66-1.03-19.66-1.16L-19.66-4.84C-19.66-4.95-19.62-5.00-19.49-5.00L-17.69-5.00C-16.28-5.00-15.00-4.36-15.00-2.99C-15.00-1.66-16.24-0.99-17.69-0.99Z"/><path fill="#000000" opacity="1" d=""/><path fill="#000000" opacity="1" d="M0.52-5.86L0.49-5.88C0.26-5.96 0.01-5.85-0.08-5.62L-1.80-1.01C-1.80-1.01-2.81 1.93-2.92 2.26C-3.20 3.01-3.20 2.84-3.40 2.32C-3.53 1.96-4.58-1.01-4.58-1.01L-6.30-5.62C-6.38-5.85-6.64-5.96-6.87-5.88L-6.89-5.86C-7.12-5.78-7.24-5.52-7.15-5.29L-3.63 4.18C-3.56 4.36-3.37 4.46-3.19 4.46C-3.00 4.46-2.82 4.36-2.75 4.18L0.77-5.29C0.86-5.52 0.74-5.78 0.52-5.86Z"/><path fill="#000000" opacity="1" d="M7.26 3.54L2.79 3.54C2.66 3.54 2.63 3.50 2.63 3.37L2.63-0.24C2.63-0.37 2.68-0.40 2.82-0.40L6.45-0.40C6.69-0.40 6.89-0.59 6.89-0.84L6.89-0.86C6.89-1.11 6.69-1.30 6.45-1.30L2.79-1.30C2.66-1.30 2.63-1.35 2.63-1.49L2.63-4.84C2.63-4.95 2.68-5.00 2.82-5.00L6.99-5.00C7.23-5.00 7.43-5.20 7.43-5.44L7.43-5.47C7.43-5.71 7.23-5.91 6.99-5.91L2.15-5.91C1.91-5.91 1.72-5.71 1.72-5.47L1.72 4.02C1.72 4.26 1.91 4.46 2.15 4.46L7.26 4.46C7.50 4.46 7.70 4.26 7.70 4.02L7.70 3.98C7.70 3.74 7.50 3.54 7.26 3.54Z"/><path fill="#000000" opacity="1" d="M15.19 3.62C14.83 3.62 15.33 2.32 15.33 1.55C15.33 0.56 14.89-0.08 14.12-0.52C13.92-0.64 13.94-0.71 14.09-0.82C14.80-1.32 15.29-2.03 15.29-2.99C15.29-4.85 13.61-5.91 11.69-5.91L9.24-5.91C8.99-5.91 8.80-5.71 8.80-5.34C8.80-5.34 8.80 4.03 8.80 4.15C8.80 4.26 8.99 4.46 9.24 4.46L9.28 4.46C9.52 4.46 9.72 4.29 9.72 4.15C9.72 4.02 9.72 0.09 9.72 0.09C9.72-0.04 9.76-0.07 9.89-0.07L12.10-0.07C13.75-0.07 14.39 0.40 14.39 1.55C14.39 2.53 14.06 3.65 14.46 4.18C14.62 4.39 14.93 4.55 15.19 4.55C16.05 4.55 15.97 3.62 15.19 3.62ZM11.69-0.99L9.88-0.99C9.75-0.99 9.72-1.03 9.72-1.16L9.72-4.84C9.72-4.95 9.76-5.00 9.89-5.00L11.69-5.00C13.10-5.00 14.38-4.36 14.38-2.99C14.38-1.66 13.14-0.99 11.69-0.99Z"/><path fill="#000000" opacity="1" d="M19.64-1.55C18.34-1.49 17.88-2.54 17.88-3.39C17.88-4.40 18.59-5.22 19.67-5.22C20.37-5.22 20.77-4.85 21.25-4.27C21.60-3.85 22.34-4.24 22.03-4.80C21.56-5.62 20.71-6.08 19.67-6.08C18.11-6.08 17.03-4.87 17.03-3.39C17.03-1.74 18.24-0.62 19.64-0.68C20.94-0.75 21.87 0.27 21.87 1.49C21.87 2.84 21.02 3.79 19.67 3.79C18.78 3.79 18.24 3.28 17.80 2.64C17.33 1.99 16.52 2.53 16.92 3.18C17.47 4.09 18.47 4.65 19.67 4.65C21.49 4.65 22.74 3.31 22.74 1.49C22.74-0.64 20.88-1.59 19.64-1.55Z"/><path fill="#000000" opacity="1" d="M24.42-5.91L24.39-5.91C24.15-5.91 23.95-5.71 23.95-5.47L23.95 4.02C23.95 4.26 24.15 4.46 24.39 4.46L24.42 4.46C24.66 4.46 24.86 4.26 24.86 4.02L24.86-5.47C24.86-5.71 24.66-5.91 24.42-5.91Z"/><path fill="#000000" opacity="1" d="M34.50-0.90L34.50-0.26Q34.50 1.22 34.00 2.33Q33.51 3.43 32.59 4.02Q31.67 4.60 30.45 4.60L30.45 4.60Q29.26 4.60 28.34 4.01Q27.42 3.43 26.91 2.34Q26.40 1.26 26.38-0.17L26.38-0.17L26.38-0.90Q26.38-2.35 26.89-3.47Q27.40-4.59 28.32-5.18Q29.25-5.77 30.44-5.77L30.44-5.77Q31.65-5.77 32.58-5.19Q33.51-4.60 34.00-3.49Q34.50-2.38 34.50-0.90L34.50-0.90ZM33.18-0.16L33.18-0.91Q33.18-2.71 32.46-3.67Q31.74-4.63 30.44-4.63L30.44-4.63Q29.18-4.63 28.45-3.67Q27.73-2.71 27.71-1.00L27.71-1.00L27.71-0.26Q27.71 1.48 28.44 2.47Q29.17 3.47 30.45 3.47L30.45 3.47Q31.74 3.47 32.45 2.53Q33.16 1.59 33.18-0.16L33.18-0.16ZM29.75-6.31L31.09-8.35L32.65-8.35L30.79-6.31L29.75-6.31Z"/><path fill="#000000" opacity="1" d="M43.53-5.91L43.49-5.91C43.25-5.91 43.05-5.71 43.05-5.47C43.05-5.47 43.05 1.58 43.05 1.95C43.05 2.32 42.98 2.44 42.74 2.08C42.48 1.72 37.37-5.72 37.37-5.72C37.24-5.91 37.01-5.95 36.80-5.86C36.64-5.81 36.53-5.59 36.53-5.45L36.53 4.02C36.53 4.26 36.73 4.46 36.97 4.46L37.01 4.46C37.26 4.46 37.45 4.26 37.45 4.02C37.45 4.02 37.45-2.85 37.45-3.29C37.45-3.73 37.58-3.79 37.81-3.46C38.02-3.15 43.12 4.26 43.12 4.26C43.25 4.45 43.47 4.50 43.67 4.42C43.84 4.35 43.97 4.19 43.97 4.01L43.97-5.47C43.97-5.71 43.77-5.91 43.53-5.91Z"/><path fill="#000000" opacity="1" d="M46.31 2.90L46.23 2.90C45.78 2.90 45.39 3.25 45.39 3.72L45.39 3.79C45.39 4.26 45.78 4.65 46.23 4.65L46.31 4.65C46.76 4.65 47.14 4.26 47.14 3.79L47.14 3.72C47.14 3.25 46.76 2.90 46.31 2.90Z"/><path fill="#000000" opacity="1" d="M49.48 2.90L49.40 2.90C48.94 2.90 48.56 3.25 48.56 3.72L48.56 3.79C48.56 4.26 48.94 4.65 49.40 4.65L49.48 4.65C49.92 4.65 50.31 4.26 50.31 3.79L50.31 3.72C50.31 3.25 49.92 2.90 49.48 2.90Z"/><path fill="#000000" opacity="1" d="M52.65 2.90L52.56 2.90C52.11 2.90 51.73 3.25 51.73 3.72L51.73 3.79C51.73 4.26 52.11 4.65 52.56 4.65L52.65 4.65C53.09 4.65 53.47 4.26 53.47 3.79L53.47 3.72C53.47 3.25 53.09 2.90 52.65 2.90Z"/><path fill="#000000" opacity="1" d=""/></g></svg>
