<?xml version="1.0" encoding="UTF-8" standalone="no" ?>
<!DOCTYPE svg PUBLIC "-//W3C//DTD SVG 1.1//EN" "http://www.w3.org/Graphics/SVG/1.1/DTD/svg11.dtd">
<svg xmlns="http://www.w3.org/2000/svg" xmlns:xlink="http://www.w3.org/1999/xlink" version="1.1" width="500" height="500" viewBox="0 0 500 500" xml:space="preserve">
<desc>Created with Fabric.js 3.6.3</desc>
<defs>
</defs>
<g transform="matrix(1.900012762236808 0 0 1.900012762236808 250 199.89999999999998)"  >
<path style="stroke: none; stroke-width: 0; stroke-dasharray: none; stroke-linecap: butt; stroke-dashoffset: 0; stroke-linejoin: miter; stroke-miterlimit: 4; fill: rgb(0,0,0); fill-rule: nonzero; opacity: 1;"  transform=" translate(-50.00079808587057, -50.129997285147304)" d="M 81.691 86.709 c -0.543 0 -1.99 0.543 -3.258 0.635 c -1.265 0.09 -5.519 -0.814 -5.88 -1.268 c -0.364 -0.453 -1.45 -2.804 -1.993 -6.062 c -0.543 -3.258 -1.99 -9.23 -2.261 -10.137 c -0.271 -0.904 -0.182 -2.623 -0.271 -3.709 c -0.09 -1.086 -0.814 -1.357 -1.268 -1.9 c -0.451 -0.543 -0.451 -3.893 -1.176 -6.154 c -0.725 -2.261 -3.258 -8.869 -3.258 -8.788 c 0 -0.071 -0.005 -1.401 -0.09 -2.343 c -0.092 -0.996 0.09 -2.443 0.361 -4.072 c 0.271 -1.629 0 -1.9 0.09 -2.354 c 0.092 -0.451 1.002 -4.794 1.002 -4.794 l 0.448 0.09 c 0 0 0.543 -0.09 2.804 1.357 c 2.261 1.447 3.258 -0.182 3.89 -1.357 c 0.635 -1.176 -1.719 -2.443 -2.804 -2.261 c -1.086 0.179 -3.258 -0.092 -3.258 -0.453 s 0.543 -2.354 0.543 -2.354 c 1.9 -0.633 0 -5.337 0.182 -7.781 c 0.179 -2.443 -1.9 -3.258 -2.443 -3.622 c -0.48 -0.32 -0.041 -1.129 0.067 -1.311 c 0.167 -0.036 0.526 -0.085 1.11 -0.022 c 0.837 0.09 1.108 -0.045 1.312 -0.249 c 0.204 -0.204 0.107 -0.836 0.068 -1.199 c -0.017 -0.158 0.047 -0.46 0.047 -0.46 c 0.089 0.007 0.181 -0.079 0.224 -0.168 c 0.136 -0.283 -0.068 -0.413 -0.09 -0.616 c -0.023 -0.204 0.113 -0.091 0.217 -0.294 c 0.104 -0.204 -0.195 -0.52 0 -0.679 c 0.195 -0.158 0.62 -0.294 0.778 -0.498 c 0.158 -0.204 0.045 -0.475 -0.113 -0.792 c -0.159 -0.317 -0.86 -1.312 -0.845 -1.606 c 0.015 -0.294 0.243 -0.397 0.387 -0.56 c 0.074 -0.084 0.186 -0.221 0.118 -0.741 c -0.067 -0.514 0.034 0.13 -0.192 -1.272 c -0.226 -1.403 -0.685 -1.711 -1.012 -2.031 c -1.005 -0.98 -4.213 -2.046 -5.65 -1.68 c -4.406 1.121 -3.529 5.808 -2.489 7.754 c 1.253 2.347 0 3.529 0 3.529 s -0.994 0.272 -1.447 0.633 c -0.453 0.361 -0.814 0.814 -1.086 1.176 c -0.271 0.364 -0.996 0.635 -1.811 0.996 c -0.814 0.361 -0.994 0.633 -1.9 1.176 c -0.904 0.543 -0.722 0.543 -1.176 1.178 c -0.453 0.633 -0.904 1.265 -1.176 1.808 c -0.271 0.543 -0.996 0.907 -2.082 1.721 c -1.086 0.815 -0.904 0.994 -1.268 1.537 c -0.361 0.543 0.182 1.268 0.182 1.268 s -0.453 0.271 -0.904 0.996 c -0.453 0.722 -0.814 1.537 -1.721 2.804 c -0.904 1.268 0.288 1.268 2.099 3.258 c 1.811 1.99 6.804 3.801 6.804 4.072 c 0 0.271 0 1.357 0 1.357 s -0.831 0.272 -1.212 0.361 c -0.38 0.092 -0.578 0.635 -0.668 1.629 c -0.092 0.996 0.289 1.629 -0.254 2.082 c -0.543 0.453 0.054 0.814 -0.036 1.086 c -0.09 0.271 -0.29 1.357 -0.018 4.072 c 0.271 2.715 -0.552 4.705 -1.366 6.244 c -0.814 1.539 -1.452 6.516 -1.634 6.877 c -0.182 0.364 -0.635 1.539 -0.817 1.178 c -0.182 -0.364 -1.177 -1.993 -2.716 -2.807 c -1.539 -0.815 -3.801 -0.543 -4.526 -0.815 c -0.722 -0.271 -7.33 -2.08 -8.234 -2.172 c -0.904 -0.09 -0.361 -0.814 -0.633 -1.265 c -0.271 -0.453 -1.45 -2.715 -2.715 -2.897 c -1.268 -0.182 -4.165 3.168 -4.979 4.344 c -0.814 1.176 -3.076 3.076 -3.619 3.983 c -0.543 0.904 -1.086 2.08 -0.543 2.804 c 0.543 0.725 1.811 -0.543 2.354 -1.086 c 0.543 -0.543 0.904 -1.176 2.351 -1.357 c 1.45 -0.182 2.897 -0.09 4.254 -0.361 c 1.357 -0.271 4.433 0.543 5.519 0.994 c 1.086 0.453 3.168 1.993 6.065 3.168 c 2.894 1.176 7.691 3.168 9.138 3.711 c 1.45 0.543 3.44 -0.907 4.254 -1.811 c 0.814 -0.904 4.355 -9.2 4.887 -9.23 c 0 0 1.629 4.344 4.887 7.148 c 0.632 0.544 1.9 0.725 1.447 5.43 c -0.451 4.708 1.268 7.241 1.9 8.145 c 0.635 0.907 3.258 5.973 3.622 6.879 c 0.291 0.73 0.824 1.087 1.266 2.986 c 0.105 0.454 -0.448 -0.006 -0.362 1.177 c 0.15 2.073 1.086 4.253 2.986 4.163 c 1.9 -0.092 2.533 -1.267 4.344 -2.081 c 1.811 -0.814 5.791 -3.711 6.154 -4.979 C 82.958 86.801 82.234 86.709 81.691 86.709 z M 51.434 35.105 c -0.071 -0.204 -1.732 -1.357 -2.207 -1.629 c -0.475 -0.271 -1.051 -1.392 -0.714 -1.561 c 0.342 -0.168 2.207 -1.46 2.207 -1.46 c -0.228 0.429 0.717 4.582 0.717 4.656 C 51.436 35.108 51.434 35.108 51.434 35.105 z" stroke-linecap="round" />
</g>
<g transform="matrix(1 0 0 1 251.89 326.46949999999987)" style=""  ><path fill="#000000" opacity="1" d="M-147.88-16.93C-148.58-25.44-155.82-27.27-160.04-27.27C-160.60-27.27-161.87-27.27-164.05-27.27L-168.12-27.27C-171.64-27.27-171.71-27.20-171.71-23.75L-171.71-5.05L-174.52-3.43C-174.87-3.22-175.08-2.94-175.08-2.45C-175.08-2.03-174.87-1.68-174.52-1.47L-171.71 0.15L-171.71 18.71C-171.71 20.40-171.85 21.94-170.16 22.08C-167.98 22.22-164.54 22.29-163.90 21.66C-163.62 21.38-163.41 20.54-163.41 19.27L-163.41 8.23C-163.41 5.99-163.76 4.30-161.37 4.02C-161.02 3.95-159.97 3.88-158.35 3.88C-157.09 3.81-156.10 3.67-155.40 3.38C-150.97 1.70-148.02-2.24-147.81-6.95L-147.81-11.66C-147.81-14.96-147.81-16.72-147.88-16.93ZM-155.75-8.22C-156.17-5.40-158.70-3.65-161.37-4.07C-162.64-4.28-163.27-4.98-163.34-6.11L-163.34-11.66L-163.41-11.66C-163.41-17.49-164.19-19.11-160.46-18.83C-155.26-18.41-155.12-13.00-155.75-8.22Z"/><path fill="#000000" opacity="1" d="M-116.80 17.87C-116.87 17.30-117.93 11.33-119.83-0.13L-117.44-1.54C-117.08-1.75-116.87-2.03-116.87-2.52C-116.87-2.94-117.08-3.29-117.44-3.51L-120.74-5.40C-120.81-5.97-121.87-12.15-123.83-23.82C-124.04-24.95-124.33-26.21-124.82-26.70C-125.10-26.92-125.66-27.06-126.36-27.13L-132.76-27.13C-135.01-27.13-135.57-26.70-136.00-24.38C-136.63-20.52-137.68-14.19-139.23-5.47L-142.60-3.51C-143.03-3.29-143.24-2.94-143.24-2.52C-143.24-2.03-143.03-1.75-142.60-1.54L-140.14-0.06C-140.14 0.01-140.21 0.22-140.21 0.43C-140.64 2.89-141.62 8.87-143.31 18.43C-143.59 20.47-144.08 21.94-142.11 22.01C-140.64 22.08-138.81 22.08-136.63 22.01C-135.64 22.01-135.08 21.52-134.87 20.47C-134.31 17.23-133.96 15.34-133.89 14.77C-133.46 11.19-132.90 11.05-129.25 11.05C-129.25 11.05-129.04 11.05-128.68 11.12C-126.22 11.19-126.08 14.56-126.01 15.26C-125.87 15.83-125.80 16.67-125.66 17.73C-125.38 19.98-125.31 21.03-124.68 21.59C-124.40 21.87-123.97 22.01-123.27 22.08C-122.71 22.08-117.72 22.29-117.08 21.66C-116.52 21.17-116.45 19.90-116.80 17.87ZM-127.84 2.40C-127.98 3.31-131.92 3.38-131.92 2.33C-131.92 2.12-131.92 1.77-131.85 1.42C-131.64-1.54-131.21-3.72-130.72-5.05C-130.44-5.54-129.67-5.83-129.25-5.05C-129.04-4.63-128.90-4.28-128.82-4.00C-128.82-3.79-128.05-0.06-127.91 1.20C-127.84 1.84-127.84 2.26-127.84 2.40Z"/><path fill="#000000" opacity="1" d=""/><path fill="#000000" opacity="1" d="M-74.48 15.48C-74.55 13.44-75.33 13.79-79.90 13.79C-85.94 13.65-86.79 14.28-87.07 11.26C-87.07 10.77-87.14 9.85-87.14 8.45L-87.14 0.01L-84.32-1.61C-83.97-1.89-83.76-2.17-83.76-2.59C-83.76-3.08-83.97-3.36-84.32-3.65L-87.14-5.26L-87.14-22.91C-87.14-25.58-86.86-27.13-88.82-27.27C-89.53-27.34-90.51-27.34-91.92-27.34C-95.36-27.34-95.43-27.20-95.43-23.75L-95.43-5.26L-98.24-3.65C-98.67-3.36-98.81-3.08-98.81-2.59C-98.81-2.17-98.67-1.89-98.24-1.61L-95.43 0.01L-95.43 18.78C-95.43 21.94-95.29 22.08-92.13 22.08L-77.72 22.08C-76.17 22.08-74.55 22.37-74.48 20.47C-74.41 18.78-74.41 17.16-74.48 15.48Z"/><path fill="#000000" opacity="1" d="M-43.76 17.87C-43.83 17.30-44.89 11.33-46.78-0.13L-44.39-1.54C-44.04-1.75-43.83-2.03-43.83-2.52C-43.83-2.94-44.04-3.29-44.39-3.51L-47.70-5.40C-47.77-5.97-48.82-12.15-50.79-23.82C-51.00-24.95-51.28-26.21-51.78-26.70C-52.06-26.92-52.62-27.06-53.32-27.13L-59.72-27.13C-61.97-27.13-62.53-26.70-62.95-24.38C-63.59-20.52-64.64-14.19-66.19-5.47L-69.56-3.51C-69.98-3.29-70.19-2.94-70.19-2.52C-70.19-2.03-69.98-1.75-69.56-1.54L-67.10-0.06C-67.10 0.01-67.17 0.22-67.17 0.43C-67.59 2.89-68.58 8.87-70.26 18.43C-70.55 20.47-71.04 21.94-69.07 22.01C-67.59 22.08-65.77 22.08-63.59 22.01C-62.60 22.01-62.04 21.52-61.83 20.47C-61.27 17.23-60.91 15.34-60.84 14.77C-60.42 11.19-59.86 11.05-56.20 11.05C-56.20 11.05-55.99 11.05-55.64 11.12C-53.18 11.19-53.04 14.56-52.97 15.26C-52.83 15.83-52.76 16.67-52.62 17.73C-52.34 19.98-52.27 21.03-51.64 21.59C-51.35 21.87-50.93 22.01-50.23 22.08C-49.67 22.08-44.68 22.29-44.04 21.66C-43.48 21.17-43.41 19.90-43.76 17.87ZM-54.80 2.40C-54.94 3.31-58.88 3.38-58.88 2.33C-58.88 2.12-58.88 1.77-58.81 1.42C-58.60-1.54-58.17-3.72-57.68-5.05C-57.40-5.54-56.63-5.83-56.20-5.05C-55.99-4.63-55.85-4.28-55.78-4.00C-55.78-3.79-55.01-0.06-54.87 1.20C-54.80 1.84-54.80 2.26-54.80 2.40Z"/><path fill="#000000" opacity="1" d="M-9.31-3.65L-12.06-5.26L-12.06-23.75C-12.06-25.37-11.92-27.13-13.39-27.20C-14.45-27.34-15.57-27.34-16.77-27.34C-20.21-27.34-20.35-27.20-20.35-23.75C-20.35-24.03-20.35-18.97-20.42-8.50C-20.42-6.18-20.35-5.97-20.77-4.63C-20.91-3.79-21.97-3.65-22.32-4.49C-22.46-4.77-22.60-5.12-22.74-5.54C-23.45-8.07-26.05-16.72-27.17-20.45C-27.31-21.08-27.59-21.99-27.94-23.12C-28.37-24.38-28.65-25.30-28.79-25.79C-29.07-26.77-29.70-27.27-30.55-27.27L-37.22-27.27C-38.84-27.20-38.70-25.51-38.70-23.33L-38.70-5.26L-41.51-3.65C-41.86-3.36-42.07-3.08-42.07-2.59C-42.07-2.17-41.86-1.89-41.51-1.61L-38.70 0.01L-38.70 17.80C-38.70 20.05-38.98 21.80-36.80 22.08L-34.34 22.08C-30.40 22.08-30.33 22.08-30.33 18.29L-30.33 3.03C-30.33 1.56-30.26 0.57-30.05 0.01C-29.70-0.83-28.79-1.04-28.37-0.20L-27.52 2.12C-27.66 1.77-25.91 7.11-22.32 18.29L-21.97 19.27C-21.76 19.76-21.69 20.12-21.62 20.40C-20.91 22.58-17.68 22.08-15.99 22.08C-12.27 22.08-12.06 21.94-12.06 18.22L-12.06 0.01L-9.31-1.61C-8.89-1.89-8.68-2.17-8.68-2.59C-8.68-3.08-8.89-3.36-9.31-3.65Z"/><path fill="#000000" opacity="1" d="M16.77-27.13L-0.11-27.13C-1.72-27.13-2.57-27.27-3.13-26.77C-3.34-26.56-3.55-26.14-3.55-25.58C-3.62-23.96-3.62-22.35-3.55-20.87C-3.48-19.46-2.99-19.11-1.58-19.04C-1.30-18.97-0.74-18.97 0.04-18.97C1.44-18.97 2.85-18.97 3.55-18.20C4.18-17.49 4.18-16.58 4.18-14.19L4.18-5.26L0.95-3.43C0.60-3.15 0.46-2.87 0.46-2.45C0.46-1.96 0.60-1.61 0.95-1.40L4.18 0.43L4.18 18.22C4.18 20.33 3.90 22.01 5.73 22.08C7.42 22.15 9.17 22.15 11.00 22.08C12.69 21.94 12.48 20.33 12.48 17.80L12.48 0.36L15.57-1.40C15.92-1.61 16.13-1.96 16.13-2.45C16.13-2.87 15.92-3.15 15.57-3.43L12.48-5.19L12.48-13.49C12.48-16.23 12.41-17.42 13.25-18.20C14.10-19.04 15.57-18.97 16.98-18.97C18.24-18.97 19.23-18.97 19.79-19.46C20.00-19.74 20.14-20.17 20.14-20.80C20.21-21.36 20.21-22.42 20.21-23.82C20.21-27.13 20.07-27.13 16.77-27.13Z"/><path fill="#000000" opacity="1" d="M48.19 15.26C47.98 13.65 46.57 13.86 44.46 13.79L37.58 13.79C35.26 13.72 34.62 13.02 34.48 10.77C34.41 8.59 34.41 6.69 34.55 5.00C34.69 1.98 35.40 1.63 38.07 1.63C40.11 1.63 41.72 1.63 42.78 1.56C43.76 1.49 44.32 0.99 44.32 0.01C44.46-1.47 44.46-2.94 44.39-4.42C44.32-6.11 43.90-6.60 42.22-6.60C41.72-6.67 40.88-6.67 39.75-6.67C37.58-6.67 36.03-6.60 35.19-7.37C34.83-7.79 34.55-8.50 34.55-9.41C34.41-11.66 34.41-13.98 34.48-16.37C34.62-18.55 35.26-19.25 37.58-19.32L44.54-19.32C46.57-19.32 48.05-19.18 48.19-20.87C48.33-22.49 48.40-26.00 47.77-26.63C47.42-26.92 46.50-27.13 44.89-27.13L29.70-27.13C26.26-27.13 26.19-26.99 26.19-23.47L26.19-5.12L23.37-3.51C23.02-3.29 22.81-2.94 22.81-2.52C22.81-2.03 23.02-1.75 23.37-1.54L26.19 0.08L26.19 17.44C26.19 20.05 26.12 20.96 26.75 21.52C27.38 22.08 28.58 22.08 29.56 22.08L44.82 22.08C46.29 22.08 47.98 22.22 48.12 20.54C48.33 18.85 48.33 17.09 48.19 15.26Z"/><path fill="#000000" opacity="1" d=""/><path fill="#000000" opacity="1" d="M92.34-23.05C90.16-25.86 87.42-27.27 84.18-27.34L81.65-27.34C75.26-27.41 71.04-21.36 71.04-16.09C71.11-14.12 71.11-10.39 71.11-4.98L68.30-3.36C67.94-3.15 67.73-2.87 67.73-2.38C67.73-1.96 67.94-1.61 68.30-1.40L71.11 0.15L71.11 10.98C71.11 12.66 71.25 13.93 71.60 14.77C75.26 23.21 84.82 24.47 90.37 19.90C95.99 15.34 94.66 12.31 94.66-2.87C94.66-4.70 94.66-5.47 94.10-6.04C93.89-6.25 93.46-6.46 92.83-6.46C92.20-6.53 90.93-6.53 89.03-6.53C86.57-6.53 85.03-6.53 84.40-6.46C83.27-6.39 82.71-5.83 82.64-4.77C82.57-4.35 82.57-2.87 82.57-0.41C82.57 0.85 83.13 1.56 84.25 1.70C85.24 1.84 85.87 2.33 86.01 3.17C86.57 5.70 86.57 8.31 86.08 11.05C86.01 11.12 85.94 11.33 85.87 11.54C84.18 14.63 80.39 14.49 79.33 11.05C78.91 9.85 78.77 8.52 78.77 7.04L78.77-12.64C78.77-16.02 79.69-18.69 82.15-19.04C84.61-19.39 86.29-17.07 86.36-14.75C86.57-9.83 86.08-9.97 87.98-9.83C89.67-9.76 91.28-9.76 92.90-9.83C95.01-9.97 94.59-11.73 94.59-13.77C94.59-14.75 94.59-15.46 94.66-15.95C94.80-18.48 94.03-20.80 92.34-23.05Z"/><path fill="#000000" opacity="1" d="M127.14-27.06C125.59-27.13 123.55-27.13 121.02-27.13C120.25-27.06 119.69-26.63 119.40-25.86C118.91-24.60 118.14-22.13 116.94-18.34C116.45-16.86 116.10-15.74 115.75-14.75C115.61-14.19 115.33-13.91 114.84-13.91C114.06-13.91 113.64-15.10 113.36-16.02C112.94-17.21 112.09-19.96 111.88-20.80C111.25-22.77 110.69-24.38 110.27-25.51C109.98-26.42 109.49-26.92 108.86-27.06C106.68-27.34 104.36-27.34 101.97-27.06C101.41-26.99 100.99-26.35 101.13-25.79C101.34-25.02 101.55-24.24 101.83-23.40L107.24-7.72C107.52-6.95 108.09-5.47 108.79-3.43L107.24-2.45C106.82-2.24 106.68-1.96 106.68-1.47C106.68-1.04 106.82-0.69 107.24-0.48L110.27 1.35C110.69 2.96 110.83 4.44 110.76 5.84L110.76 16.32C110.76 18.50 110.83 19.76 110.83 20.26C110.97 21.59 111.39 22.01 112.73 22.08L115.26 22.08C119.05 22.08 119.05 22.08 119.05 18.22C119.12 15.62 119.12 10.77 119.05 3.60C119.05 2.75 119.12 1.98 119.26 1.28L122.29-0.48C122.71-0.69 122.85-1.04 122.85-1.47C122.85-1.96 122.71-2.24 122.29-2.45L120.81-3.36C122.71-8.85 125.17-15.74 127.98-24.03C128.40-25.16 128.61-25.93 128.19-26.56C127.91-26.92 127.56-27.06 127.14-27.06Z"/><path fill="#000000" opacity="1" d="M171.99-3.36L169.18-4.98L169.18-23.19C169.18-25.23 169.46-26.92 167.56-26.99C165.38-27.06 162.71-27.06 159.55-26.99C157.44-26.99 157.65-25.51 157.09-22.35C156.80-21.08 156.66-20.10 156.52-19.32C156.03-17.07 155.47-13.98 154.77-10.25L153.08-1.11C153.08-0.83 153.01-0.69 152.94-0.55C152.45 0.57 151.46 0.43 151.18-0.41C150.90-1.26 150.69-1.89 150.62-2.24L146.96-20.73L145.98-25.58C145.77-26.49 145.20-26.99 144.43-26.99L135.85-26.99C134.10-26.92 134.31-25.16 134.31-23.12L134.31-4.98L131.50-3.36C131.14-3.15 130.93-2.80 130.93-2.38C130.93-1.89 131.14-1.61 131.50-1.40L134.31 0.22L134.31 18.15C134.31 20.47 134.10 21.94 135.78 22.15C137.54 22.29 139.30 22.29 140.99 22.15C142.74 21.87 142.60 20.19 142.60 18.22L142.60 6.27C142.60 5.07 142.74 4.23 142.96 3.81C143.03 3.52 143.73 3.24 144.01 3.81C144.36 4.58 144.57 5.14 144.71 5.56C145.13 7.39 145.77 9.92 146.47 13.16C146.75 14.14 147.81 18.57 148.23 20.40C148.51 21.73 148.93 22.08 150.34 22.15C152.30 22.29 154.48 22.22 155.05 21.73C155.33 21.45 155.61 20.89 155.82 20.12C156.10 18.85 156.52 17.09 157.02 14.70L158.49 7.39C158.70 6.34 158.98 5.63 159.26 5.28C159.41 5.14 159.55 5.07 159.76 5.07C159.97 5.07 160.11 5.14 160.18 5.35C160.60 6.41 160.88 7.74 160.88 9.43L160.88 18.57C160.88 20.33 160.74 21.94 162.15 22.08C164.05 22.29 165.87 22.29 167.70 22.08C169.32 21.87 169.18 20.05 169.18 18.08L169.18 0.22L171.99-1.40C172.34-1.61 172.55-1.89 172.55-2.38C172.55-2.80 172.34-3.15 171.99-3.36Z"/></g><g transform="matrix(1 0 0 1 250 375.9599999999999)" style=""  ><path fill="#000000" opacity="1" d="M-160.08-8.00C-161.54-8.69-164.41-9.04-166.89-9.04C-170.29-9.04-173.14-7.50-173.14-4.39C-173.14-0.48-170.93-0.18-164.95 0.93C-162.10 1.47-161.22 1.65-161.22 3.75C-161.22 7.08-163.06 7.11-166.04 7.11C-169.18 7.11-171.76 6.31-172.79 5.88C-173.11 6.39-173.33 6.81-173.62 7.35C-172.05 8.09-168.72 8.65-166.28 8.65C-162.21 8.65-159.41 7.77-159.41 3.65C-159.49-0.50-163.99-0.61-167.95-1.46C-171.04-2.12-171.30-2.12-171.30-4.36C-171.30-6.78-169.65-7.52-166.49-7.52C-164.33-7.52-161.97-6.94-160.96-6.59Z"/><path fill="#000000" opacity="1" d="M-140.24 5.94C-141.25 6.28-143.69 7.19-145.85 7.19C-150.74 7.19-152.50 6.15-152.60 0.30L-138.53 0.30L-138.53-0.40C-138.53-7.39-141.41-9.07-146.49-9.07C-151.22-9.07-154.57-7.63-154.57 0.03C-154.57 7.37-151.54 8.70-146.25 8.70C-143.77 8.70-140.82 8.04-139.36 7.35ZM-152.58-1.25C-152.31-7.28-149.76-7.58-146.49-7.58C-142.71-7.58-140.77-6.73-140.55-1.25Z"/><path fill="#000000" opacity="1" d=""/><path fill="#000000" opacity="1" d="M-111.69 8.36L-111.69-7.20L-105.58-7.20L-105.31-8.72L-119.38-8.72L-119.65-7.20L-113.61-7.20L-113.61 8.36Z"/><path fill="#000000" opacity="1" d="M-88.23 1.15C-88.23 5.43-88.79 7.11-93.53 7.11C-98.26 7.11-98.90 5.43-98.90 1.15L-98.90-8.72L-100.79-8.72L-100.79 1.17C-100.79 6.49-99.64 8.65-93.53 8.65C-87.41 8.65-86.34 6.49-86.34 1.17L-86.34-8.72L-88.23-8.72Z"/><path fill="#000000" opacity="1" d=""/><path fill="#000000" opacity="1" d="M-46.74 8.36L-46.74-8.72L-49.61-8.72L-54.88 3.57L-55.99 6.79L-57.11 3.57L-62.38-8.72L-65.25-8.72L-65.25 8.36L-63.44 8.36L-63.44-6.59L-63.36-6.59L-57.03 8.36L-54.96 8.36L-48.62-6.59L-48.54-6.59L-48.54 8.36Z"/><path fill="#000000" opacity="1" d="M-26.60 5.94C-27.61 6.28-30.06 7.19-32.21 7.19C-37.11 7.19-38.86 6.15-38.97 0.30L-24.90 0.30L-24.90-0.40C-24.90-7.39-27.77-9.07-32.85-9.07C-37.59-9.07-40.94-7.63-40.94 0.03C-40.94 7.37-37.91 8.70-32.61 8.70C-30.14 8.70-27.19 8.04-25.72 7.35ZM-38.94-1.25C-38.68-7.28-36.12-7.58-32.85-7.58C-29.07-7.58-27.13-6.73-26.92-1.25Z"/><path fill="#000000" opacity="1" d="M-21.63 8.49C-16.57 8.49-14.98 7.69-14.98 3.01L-14.98-8.72L-16.86-8.72L-16.86 3.12C-16.86 7.00-18.14 7.08-21.47 7.08Z"/><path fill="#000000" opacity="1" d="M-0.85-7.58C2.53-7.58 5.75-7.55 5.75-0.21C5.75 7.13 2.58 7.16-0.85 7.16C-4.34 7.16-7.45 7.13-7.45-0.21C-7.45-7.55-4.34-7.58-0.85-7.58ZM-9.42-0.21C-9.42 7.45-5.59 8.65-0.85 8.65C3.88 8.65 7.71 7.45 7.71-0.21C7.71-7.87 3.88-9.07-0.85-9.07C-5.59-9.07-9.42-7.87-9.42-0.21Z"/><path fill="#000000" opacity="1" d="M28.36 6.95C27.29 7.08 26.57 6.87 24.95 4.77L22.90 2.11C25.86 1.73 26.87 0.48 26.87-3.24C26.87-7.92 25.27-8.72 20.22-8.72L13.33-8.72L13.33 8.36L15.24 8.36L15.24 2.21L20.22 2.21L20.69 2.21L23.20 5.62C25.19 8.30 26.28 8.62 28.06 8.36ZM15.24 0.70L15.24-7.20L20.27-7.20C23.62-7.20 24.87-7.13 24.87-3.24C24.87 0.48 23.62 0.70 20.27 0.70Z"/><path fill="#000000" opacity="1" d=""/><path fill="#000000" opacity="1" d="M56.71 8.36L63.55-8.72L61.58-8.72L56.66 3.54L55.65 6.76L55.49 6.76L54.48 3.54L49.56-8.72L47.59-8.72L54.42 8.36Z"/><path fill="#000000" opacity="1" d="M81.58 5.94C80.57 6.28 78.12 7.19 75.97 7.19C71.08 7.19 69.32 6.15 69.21 0.30L83.28 0.30L83.28-0.40C83.28-7.39 80.41-9.07 75.33-9.07C70.60-9.07 67.24-7.63 67.24 0.03C67.24 7.37 70.28 8.70 75.57 8.70C78.04 8.70 81.00 8.04 82.46 7.35ZM69.24-1.25C69.51-7.28 72.06-7.58 75.33-7.58C79.11-7.58 81.05-6.73 81.26-1.25Z"/><path fill="#000000" opacity="1" d="M103.55 6.95C102.49 7.08 101.77 6.87 100.15 4.77L98.10 2.11C101.05 1.73 102.06 0.48 102.06-3.24C102.06-7.92 100.47-8.72 95.41-8.72L88.52-8.72L88.52 8.36L90.44 8.36L90.44 2.21L95.41 2.21L95.89 2.21L98.39 5.62C100.39 8.30 101.48 8.62 103.26 8.36ZM90.44 0.70L90.44-7.20L95.47-7.20C98.82-7.20 100.07-7.13 100.07-3.24C100.07 0.48 98.82 0.70 95.47 0.70Z"/><path fill="#000000" opacity="1" d="M121.83-8.00C120.36-8.69 117.49-9.04 115.02-9.04C111.61-9.04 108.77-7.50 108.77-4.39C108.77-0.48 110.98-0.18 116.96 0.93C119.81 1.47 120.68 1.65 120.68 3.75C120.68 7.08 118.85 7.11 115.87 7.11C112.73 7.11 110.15 6.31 109.11 5.88C108.79 6.39 108.58 6.81 108.29 7.35C109.86 8.09 113.18 8.65 115.63 8.65C119.70 8.65 122.49 7.77 122.49 3.65C122.41-0.50 117.92-0.61 113.95-1.46C110.87-2.12 110.60-2.12 110.60-4.36C110.60-6.78 112.25-7.52 115.42-7.52C117.57-7.52 119.94-6.94 120.95-6.59Z"/><path fill="#000000" opacity="1" d="M129.81 8.36L129.81-8.72L127.89-8.72L127.89 8.36Z"/><path fill="#000000" opacity="1" d="M144.41-7.58C147.79-7.58 151.01-7.55 151.01-0.21C151.01 7.13 147.84 7.16 144.41 7.16C140.93 7.16 137.81 7.13 137.81-0.21C137.81-7.55 140.93-7.58 144.41-7.58ZM135.85-0.21C135.85 7.45 139.68 8.65 144.41 8.65C149.15 8.65 152.98 7.45 152.98-0.21C152.98-7.87 149.15-9.07 144.41-9.07C139.68-9.07 135.85-7.87 135.85-0.21ZM143.91-9.97C144.73-10.98 145.34-11.78 146.25-12.82L143.99-12.82L142.58-9.97Z"/><path fill="#000000" opacity="1" d="M172.71 8.36L172.71-8.72L170.93-8.72L170.93 5.70L160.85-8.72L158.72-8.72L158.72 8.36L160.53 8.36L160.53-6.11L170.61 8.36Z"/></g></svg>